<svg width="31" height="32" viewBox="0 0 31 32" fill="none" xmlns="http://www.w3.org/2000/svg">
<path d="M15.2382 1.00189C6.96577 1.14628 0.357869 7.98896 0.502265 16.2614C0.64666 24.5338 7.48934 31.1417 15.7618 30.9973C24.0342 30.8529 30.6421 24.0102 30.4977 15.7378C30.3533 7.46539 23.5106 0.85749 15.2382 1.00189ZM15.7397 29.7344C8.16193 29.8666 1.8975 23.8171 1.76523 16.2393C1.63296 8.66155 7.68245 2.39712 15.2602 2.26485C22.838 2.13258 29.1025 8.18207 29.2347 15.7599C29.367 23.3377 23.3175 29.6021 15.7397 29.7344Z" fill="black" stroke="black"/>
<path d="M21.7339 14.8786L12.9247 9.59997C12.1265 9.10856 11.0945 9.69509 11.111 10.6423L11.3012 21.5354C11.3177 22.4826 12.3696 23.0328 13.1501 22.5138L21.7697 16.9309C22.5187 16.4125 22.5 15.339 21.7339 14.8786Z" fill="black"/>
</svg>
